<svg width="169" height="100" viewBox="0 0 169 100" fill="none" xmlns="http://www.w3.org/2000/svg">
<path d="M0.000243389 95.7277C16.5496 104.585 65.5033 96.838 93.3665 81.6524C123.526 65.215 137.118 50.7336 158.384 11.996C159.474 14.5039 160.242 16.5087 161.204 18.4168C162.251 20.4941 163.329 22.5923 164.713 24.4435C165.144 25.0202 166.839 25.2408 167.538 24.8601C168.206 24.4959 168.83 22.9956 168.617 22.2354C166.766 15.663 164.774 9.12866 162.71 2.61813C162.022 0.444781 160.442 -0.386479 158.186 0.529954C149.894 3.89723 141.558 7.15956 133.341 10.7024C131.404 11.5371 129.871 13.3102 127.675 15.0238C132.77 18.3343 136.276 14.9888 139.937 14.2072C143.808 13.3816 147.533 11.8708 152.169 10.3888C147.587 22.9433 141.307 33.3281 133.471 42.6845C104.684 77.0553 67.1277 93.2767 22.9284 95.3636C17.1746 95.6345 11.39 95.2394 5.62001 95.2272C4.05997 95.224 2.49997 95.4952 0.000243389 95.7277Z" fill="#231F20"/>
</svg>
